{
  "asset": {
    "generator": "Khronos glTF Blender I/O v1.6.16",
    "version": "2.0"
  },
  "scene": 0,
  "scenes": [
    {
      "name": "Scene",
      "nodes": [
        0
      ]
    }
  ],
  "nodes": [
    {
      "mesh": 0,
      "name": "sphere_gltf"
    }
  ],
  "materials": [
    {
      "doubleSided": true,
      "name": "rough_plaster_brick",
      "normalTexture": {
        "index": 0
      },
      "pbrMetallicRoughness": {
        "baseColorTexture": {
          "index": 1
        },
        "metallicFactor": 0,
        "metallicRoughnessTexture": {
          "index": 2
        }
      }
    }
  ],
  "meshes": [
    {
      "name": "Sphere.001",
      "primitives": [
        {
          "attributes": {
            "POSITION": 0,
            "NORMAL": 1,
            "TEXCOORD_0": 2
          },
          "indices": 3,
          "material": 0
        }
      ]
    }
  ],
  "textures": [
    {
      "sampler": 0,
      "source": 0
    },
    {
      "sampler": 0,
      "source": 1
    },
    {
      "sampler": 0,
      "source": 2
    }
  ],
  "images": [
    {
      "mimeType": "image/jpeg",
      "name": "rough_plaster_brick_nor_gl_4k",
      "uri": "textures/rough_plaster_brick_nor_gl_1k.jpg"
    },
    {
      "mimeType": "image/jpeg",
      "name": "rough_plaster_brick_diff_4k",
      "uri": "textures/rough_plaster_brick_diff_1k.jpg"
    },
    {
      "mimeType": "image/jpeg",
      "name": "rough_plaster_brick_rough_4k",
      "uri": "textures/rough_plaster_brick_rough_1k.jpg"
    }
  ],
  "accessors": [
    {
      "bufferView": 0,
      "componentType": 5126,
      "count": 53914,
      "max": [
        0.7519145607948303,
        0.7593333721160889,
        0.7571982741355896
      ],
      "min": [
        -0.7519147396087646,
        -0.7613208889961243,
        -0.7571989893913269
      ],
      "type": "VEC3"
    },
    {
      "bufferView": 1,
      "componentType": 5126,
      "count": 53914,
      "type": "VEC3"
    },
    {
      "bufferView": 2,
      "componentType": 5126,
      "count": 53914,
      "type": "VEC2"
    },
    {
      "bufferView": 3,
      "componentType": 5123,
      "count": 322170,
      "type": "SCALAR"
    }
  ],
  "bufferViews": [
    {
      "buffer": 0,
      "byteLength": 646968,
      "byteOffset": 0
    },
    {
      "buffer": 0,
      "byteLength": 646968,
      "byteOffset": 646968
    },
    {
      "buffer": 0,
      "byteLength": 431312,
      "byteOffset": 1293936
    },
    {
      "buffer": 0,
      "byteLength": 644340,
      "byteOffset": 1725248
    }
  ],
  "samplers": [
    {
      "magFilter": 9729,
      "minFilter": 9987
    }
  ],
  "buffers": [
    {
      "byteLength": 2369588,
      "uri": "rough_plaster_brick.bin"
    }
  ]
}